#tb 0: 1001/30000
0,          0,          0,        1,    71190, a6c1b7686202f5cc64335f92be595309
0,          1,          1,        1,    71190, 3e573d4c693a39c5d6cd46b8873e99bb
0,          2,          2,        1,    71190, d2388f6f641c8ddec98f11493f1a1390
0,          3,          3,        1,    71190, 16473e33532ebc8de2f02077c406346b
0,          4,          4,        1,    71190, 6c75d1c01276838fce40837e373f49db
0,          5,          5,        1,    71190, b718e7445e2b08dde78fa7f30be01346
0,          6,          6,        1,    71190, 2f556ed5afd60b1bbae76984ce073107
0,          7,          7,        1,    71190, 4e5d59daed044c39a14c35f18cb4fb7a
0,          8,          8,        1,    71190, c14901a9906ffcd0eb1efc068ce32941
0,          9,          9,        1,    71190, 3d73b7f87bcd16c1ec565b5cc8d0fe93
